<svg width="258" height="258" viewBox="0 0 258 258" fill="none" xmlns="http://www.w3.org/2000/svg">
<circle cx="146.591" cy="252.136" r="5.86364" fill="white" fill-opacity="0.2"/>
<circle cx="146.591" cy="111.409" r="5.86364" fill="white" fill-opacity="0.2"/>
<circle cx="5.86364" cy="252.136" r="5.86364" fill="white" fill-opacity="0.2"/>
<circle cx="5.86364" cy="111.409" r="5.86364" fill="white" fill-opacity="0.2"/>
<circle cx="146.591" cy="181.773" r="5.86364" fill="white" fill-opacity="0.2"/>
<circle cx="146.591" cy="41.0455" r="5.86364" fill="white" fill-opacity="0.2"/>
<circle cx="5.86364" cy="181.773" r="5.86364" fill="white" fill-opacity="0.2"/>
<circle cx="5.86364" cy="41.0455" r="5.86364" fill="white" fill-opacity="0.2"/>
<circle cx="146.591" cy="146.591" r="5.86364" fill="white" fill-opacity="0.2"/>
<circle cx="146.591" cy="5.86364" r="5.86364" fill="white" fill-opacity="0.2"/>
<circle cx="5.86364" cy="146.591" r="5.86364" fill="white" fill-opacity="0.2"/>
<circle cx="5.86364" cy="5.86364" r="5.86364" fill="white" fill-opacity="0.2"/>
<circle cx="146.591" cy="216.955" r="5.86364" fill="white" fill-opacity="0.2"/>
<circle cx="146.591" cy="76.2273" r="5.86364" fill="white" fill-opacity="0.2"/>
<circle cx="5.86364" cy="216.955" r="5.86364" fill="white" fill-opacity="0.2"/>
<circle cx="5.86364" cy="76.2273" r="5.86364" fill="white" fill-opacity="0.2"/>
<circle cx="181.773" cy="252.136" r="5.86364" fill="white" fill-opacity="0.2"/>
<circle cx="181.773" cy="111.409" r="5.86364" fill="white" fill-opacity="0.2"/>
<circle cx="41.0455" cy="252.136" r="5.86364" fill="white" fill-opacity="0.2"/>
<circle cx="41.0455" cy="111.409" r="5.86364" fill="white" fill-opacity="0.2"/>
<circle cx="181.773" cy="181.773" r="5.86364" fill="white" fill-opacity="0.2"/>
<circle cx="181.773" cy="41.0455" r="5.86364" fill="white" fill-opacity="0.2"/>
<circle cx="41.0455" cy="181.773" r="5.86364" fill="white" fill-opacity="0.2"/>
<circle cx="41.0455" cy="41.0455" r="5.86364" fill="white" fill-opacity="0.2"/>
<circle cx="181.773" cy="146.591" r="5.86364" fill="white" fill-opacity="0.2"/>
<circle cx="181.773" cy="5.86364" r="5.86364" fill="white" fill-opacity="0.2"/>
<circle cx="41.0455" cy="146.591" r="5.86364" fill="white" fill-opacity="0.2"/>
<circle cx="41.0455" cy="5.86364" r="5.86364" fill="white" fill-opacity="0.2"/>
<circle cx="181.773" cy="216.955" r="5.86364" fill="white" fill-opacity="0.2"/>
<circle cx="181.773" cy="76.2273" r="5.86364" fill="white" fill-opacity="0.2"/>
<circle cx="41.0455" cy="216.955" r="5.86364" fill="white" fill-opacity="0.2"/>
<circle cx="41.0455" cy="76.2273" r="5.86364" fill="white" fill-opacity="0.2"/>
<circle cx="216.955" cy="252.136" r="5.86364" fill="white" fill-opacity="0.2"/>
<circle cx="216.955" cy="111.409" r="5.86364" fill="white" fill-opacity="0.2"/>
<circle cx="76.2273" cy="252.136" r="5.86364" fill="white" fill-opacity="0.2"/>
<circle cx="76.2273" cy="111.409" r="5.86364" fill="white" fill-opacity="0.2"/>
<circle cx="216.955" cy="181.773" r="5.86364" fill="white" fill-opacity="0.2"/>
<circle cx="216.955" cy="41.0455" r="5.86364" fill="white" fill-opacity="0.2"/>
<circle cx="76.2273" cy="181.773" r="5.86364" fill="white" fill-opacity="0.2"/>
<circle cx="76.2273" cy="41.0455" r="5.86364" fill="white" fill-opacity="0.2"/>
<circle cx="216.955" cy="146.591" r="5.86364" fill="white" fill-opacity="0.2"/>
<circle cx="216.955" cy="5.86364" r="5.86364" fill="white" fill-opacity="0.2"/>
<circle cx="76.2273" cy="146.591" r="5.86364" fill="white" fill-opacity="0.2"/>
<circle cx="76.2273" cy="5.86364" r="5.86364" fill="white" fill-opacity="0.2"/>
<circle cx="216.955" cy="216.955" r="5.86364" fill="white" fill-opacity="0.2"/>
<circle cx="216.955" cy="76.2273" r="5.86364" fill="white" fill-opacity="0.2"/>
<circle cx="76.2273" cy="216.955" r="5.86364" fill="white" fill-opacity="0.2"/>
<circle cx="76.2273" cy="76.2273" r="5.86364" fill="white" fill-opacity="0.2"/>
<circle cx="252.136" cy="252.136" r="5.86364" fill="white" fill-opacity="0.2"/>
<circle cx="252.136" cy="111.409" r="5.86364" fill="white" fill-opacity="0.2"/>
<circle cx="111.409" cy="252.136" r="5.86364" fill="white" fill-opacity="0.2"/>
<circle cx="111.409" cy="111.409" r="5.86364" fill="white" fill-opacity="0.2"/>
<circle cx="252.136" cy="181.773" r="5.86364" fill="white" fill-opacity="0.2"/>
<circle cx="252.136" cy="41.0455" r="5.86364" fill="white" fill-opacity="0.2"/>
<circle cx="111.409" cy="181.773" r="5.86364" fill="white" fill-opacity="0.2"/>
<circle cx="111.409" cy="41.0455" r="5.86364" fill="white" fill-opacity="0.2"/>
<circle cx="252.136" cy="146.591" r="5.86364" fill="white" fill-opacity="0.2"/>
<circle cx="252.136" cy="5.86364" r="5.86364" fill="white" fill-opacity="0.2"/>
<circle cx="111.409" cy="146.591" r="5.86364" fill="white" fill-opacity="0.2"/>
<circle cx="111.409" cy="5.86364" r="5.86364" fill="white" fill-opacity="0.2"/>
<circle cx="252.136" cy="216.955" r="5.86364" fill="white" fill-opacity="0.2"/>
<circle cx="252.136" cy="76.2273" r="5.86364" fill="white" fill-opacity="0.2"/>
<circle cx="111.409" cy="216.955" r="5.86364" fill="white" fill-opacity="0.2"/>
<circle cx="111.409" cy="76.2273" r="5.86364" fill="white" fill-opacity="0.2"/>
</svg>
