<svg width="208" height="39" viewBox="0 0 208 39" fill="none" xmlns="http://www.w3.org/2000/svg">
<g clip-path="url(#clip0_4_257)">
<path d="M145.542 8.07988C142.343 8.07988 140.058 9.15812 138.937 11.1976L138.334 12.2965V8.61212H133.122V31.0601H138.604V17.706C138.604 14.5149 140.36 12.6842 143.427 12.6842C146.349 12.6842 148.024 14.4644 148.024 17.5729V31.0601H153.506V16.6071C153.506 11.271 150.528 8.07988 145.542 8.07988ZM118.967 8.07988C112.501 8.07988 108.483 12.0556 108.483 18.4608V21.6129C108.483 27.768 112.536 31.5946 119.058 31.5946C123.418 31.5946 126.475 30.0162 128.399 26.7769L125 24.8522C123.579 26.7219 121.31 27.8781 119.058 27.8781C115.756 27.8781 113.783 25.8685 113.783 22.5007V21.6083H129.09V17.8826C129.09 11.9179 125.116 8.07988 118.967 8.07988ZM124.104 17.9767H113.783V17.4399C113.783 13.7418 115.624 11.7046 118.967 11.7046C122.185 11.7046 124.104 13.7142 124.104 17.082V17.9767ZM207.919 4.91629V0.621706H188.968V4.91629H195.613V26.7678H188.968V31.0601H207.919V26.7678H201.274V4.91629H207.919ZM64.2148 0C55.7482 0 50.4877 5.20306 50.4877 13.5766V18.1052C50.4877 26.481 55.7459 31.6818 64.2148 31.6818C72.6837 31.6818 77.9418 26.481 77.9418 18.1052V13.5766C77.9395 5.20306 72.679 0 64.2148 0ZM72.2788 18.4149C72.2788 23.9758 69.3403 27.1669 64.2148 27.1669C59.0892 27.1669 56.1484 23.9758 56.1484 18.4149V13.2669C56.1484 7.70594 59.0869 4.51482 64.2124 4.51482C69.338 4.51482 72.2765 7.70594 72.2765 13.2669L72.2788 18.4149ZM95.1519 8.09135C92.2762 8.09135 89.7843 9.26365 88.4884 11.232L87.8975 12.1267V8.61212H82.6882V38.7844H88.1674V27.8575L88.756 28.7155C89.9891 30.5164 92.3971 31.5946 95.1961 31.5946C99.9214 31.5946 104.689 28.548 104.689 21.7459V17.9239C104.689 13.026 101.75 8.07988 95.1495 8.07988L95.1519 8.09135ZM99.2095 21.489C99.2095 25.1068 97.069 27.3551 93.6256 27.3551C90.4149 27.3551 88.172 24.9806 88.172 21.5785V18.2061C88.172 14.7512 90.4335 12.3401 93.6698 12.3401C97.0899 12.3401 99.2141 14.5883 99.2141 18.2061L99.2095 21.489ZM168.652 0.633176L157.589 31.0601H163.15L165.267 24.5356H177.982L178.003 24.5998L180.097 31.0601H185.664L174.592 0.621706L168.652 0.633176ZM166.635 20.2525L171.623 4.84747L176.563 20.2341L166.635 20.2525ZM36.2506 15.8712C36.6905 14.5653 36.8426 13.1818 36.6968 11.8133C36.5511 10.4448 36.1109 9.12271 35.4056 7.93535C33.26 4.25306 28.9478 2.35881 24.7367 3.2487C23.5706 1.96974 22.0837 1.01584 20.4254 0.4828C18.7671 -0.0502397 16.9957 -0.143651 15.2892 0.211948C13.5827 0.567547 12.0012 1.35964 10.7034 2.50866C9.40557 3.65769 8.43725 5.1232 7.89564 6.75801C6.52824 7.03453 5.23645 7.59564 4.1066 8.40386C2.97674 9.21207 2.03485 10.2488 1.34388 11.4447C-0.825 15.121 -0.332687 19.7585 2.56116 22.9125C2.11975 24.2178 1.96613 25.601 2.11058 26.9696C2.25503 28.3382 2.69421 29.6606 3.39875 30.8483C5.54669 34.532 9.86164 36.426 14.0754 35.535C15.0018 36.5636 16.1402 37.3855 17.4145 37.9458C18.6887 38.5061 20.0695 38.7919 21.4647 38.7841C25.7811 38.788 29.6056 36.0404 30.9238 31.9876C32.2911 31.7106 33.5827 31.1493 34.7125 30.3411C35.8422 29.533 36.7842 28.4965 37.4756 27.3009C39.6184 23.631 39.124 19.0185 36.2506 15.8712ZM21.4645 36.2459C19.7415 36.2486 18.0726 35.6532 16.7503 34.5641L16.983 34.434L24.8141 29.9768C25.009 29.8641 25.1708 29.7033 25.2837 29.5103C25.3965 29.3172 25.4565 29.0986 25.4577 28.8758V17.9889L28.7685 19.8774C28.7848 19.8856 28.7989 19.8974 28.8097 19.912C28.8205 19.9266 28.8277 19.9435 28.8306 19.9613V28.983C28.822 32.9908 25.5291 36.2377 21.4645 36.2461V36.2459ZM5.63161 29.5792C4.76757 28.1081 4.45731 26.3837 4.7554 24.7093L4.98806 24.8469L12.8269 29.3039C13.0209 29.4162 13.2417 29.4753 13.4666 29.4753C13.6915 29.4753 13.9124 29.4162 14.1063 29.3039L23.682 23.8607V27.6299C23.6811 27.6494 23.6757 27.6684 23.6663 27.6855C23.657 27.7027 23.6438 27.7175 23.6278 27.729L15.6959 32.2399C12.171 34.242 7.66787 33.0516 5.63161 29.5792ZM3.56906 12.7599C4.43912 11.2792 5.81244 10.1499 7.44591 9.57175V18.7459C7.44295 18.9676 7.5004 19.186 7.61225 19.3783C7.7241 19.5706 7.88624 19.7298 8.08177 19.8393L17.6109 25.2598L14.3001 27.1484C14.2822 27.1577 14.2622 27.1626 14.242 27.1626C14.2217 27.1626 14.2017 27.1577 14.1838 27.1484L6.26747 22.645C2.74962 20.6347 1.54327 16.1976 3.56906 12.7216V12.7599ZM30.7689 18.9907L21.2088 13.5167L24.5117 11.636C24.5296 11.6266 24.5496 11.6217 24.5698 11.6217C24.5901 11.6217 24.6101 11.6266 24.628 11.636L32.5446 16.1467C33.7549 16.8354 34.7416 17.8494 35.3894 19.0703C36.0373 20.2912 36.3195 21.6686 36.2032 23.0417C36.087 24.4149 35.577 25.727 34.7328 26.8251C33.8886 27.9232 32.7451 28.7618 31.4357 29.2431V20.0685C31.4289 19.8472 31.3638 19.6315 31.2469 19.4425C31.13 19.2535 30.9653 19.0977 30.7689 18.9905V18.9907ZM34.0641 14.1054L33.8314 13.9677L26.0082 9.47241C25.813 9.3595 25.5909 9.29997 25.3646 9.29997C25.1384 9.29997 24.9162 9.3595 24.7211 9.47241L15.1531 14.9154V11.1462C15.1511 11.1271 15.1544 11.1078 15.1626 11.0904C15.1708 11.0729 15.1835 11.058 15.1996 11.0471L23.1159 6.54374C24.3293 5.85453 25.7165 5.52022 27.1155 5.5799C28.5144 5.63957 29.8672 6.09078 31.0156 6.88075C32.1641 7.67071 33.0606 8.76677 33.6005 10.0407C34.1403 11.3147 34.3011 12.7139 34.0641 14.0746V14.1052V14.1054ZM13.3465 20.7872L10.0357 18.9065C10.0191 18.8966 10.005 18.8833 9.99425 18.8674C9.98352 18.8516 9.97645 18.8336 9.97355 18.8147V9.81607C9.9754 8.43566 10.3758 7.08429 11.1278 5.91996C11.8798 4.75564 12.9525 3.82646 14.2204 3.24108C15.4882 2.6557 16.8989 2.4383 18.2874 2.61429C19.676 2.79029 20.985 3.35241 22.0615 4.23494L21.8288 4.36502L13.9977 8.82226C13.8028 8.93498 13.641 9.09575 13.5282 9.28877C13.4153 9.48179 13.3554 9.70042 13.3541 9.92321L13.3465 20.7872ZM15.1454 16.9645L19.4099 14.541L23.682 16.9645V21.8116L19.4252 24.2353L15.1533 21.8116L15.1456 16.9645H15.1454Z" fill="white" fill-opacity="0.6"/>
</g>
<defs>
<clipPath id="clip0_4_257">
<rect width="208" height="39" fill="white"/>
</clipPath>
</defs>
</svg>
